<svg xmlns="http://www.w3.org/2000/svg" viewBox="0 0 512 512" fill="none">
  <!-- Background -->
  <circle cx="256" cy="256" r="240" fill="#FF9F43"/>
  
  <!-- Neural network - cleaner design -->
  <!-- Top nodes -->
  <circle cx="170" cy="200" r="20" fill="#fff"/>
  <circle cx="256" cy="170" r="24" fill="#fff"/>
  <circle cx="342" cy="200" r="20" fill="#fff"/>
  
  <!-- Middle nodes -->
  <circle cx="130" cy="270" r="16" fill="#fff"/>
  <circle cx="200" cy="290" r="18" fill="#fff"/>
  <circle cx="312" cy="290" r="18" fill="#fff"/>
  <circle cx="382" cy="270" r="16" fill="#fff"/>
  
  <!-- Center core -->
  <circle cx="256" cy="250" r="28" fill="#fff"/>
  
  <!-- Neural connections - clean lines -->
  <path d="M190 200 L256 194 L322 200" stroke="#fff" stroke-width="5" stroke-linecap="round"/>
  <path d="M170 215 L130 255" stroke="#fff" stroke-width="4" stroke-linecap="round"/>
  <path d="M342 215 L382 255" stroke="#fff" stroke-width="4" stroke-linecap="round"/>
  <path d="M256 226 L256 222" stroke="#fff" stroke-width="5" stroke-linecap="round"/>
  <path d="M230 265 L200 272" stroke="#fff" stroke-width="3" stroke-linecap="round"/>
  <path d="M282 265 L312 272" stroke="#fff" stroke-width="3" stroke-linecap="round"/>
  <path d="M215 278 L145 278" stroke="#fff" stroke-width="3" stroke-linecap="round"/>
  <path d="M297 278 L367 278" stroke="#fff" stroke-width="3" stroke-linecap="round"/>
  
  <!-- Brain arc -->
  <path d="M100 160 Q256 60 412 160" stroke="#fff" stroke-width="8" fill="none" stroke-linecap="round"/>
  
  <!-- Number 137 - bold and clean -->
  <text x="256" y="410" font-family="Arial, sans-serif" font-size="90" font-weight="bold" fill="#fff" text-anchor="middle">137</text>
</svg>
